<svg xmlns="http://www.w3.org/2000/svg" xmlns:xlink="http://www.w3.org/1999/xlink" version="1.1" width="411px" height="211px" viewBox="-0.5 -0.5 411 211">
	<defs />
	<g>
		<rect x="92" y="0" width="230" height="210" rx="31.5" ry="31.5" fill="#ffffff" stroke="#000000" pointer-events="all" />
		<ellipse cx="22" cy="87.5" rx="7.5" ry="7.5" fill="#ffffff" stroke="#000000" pointer-events="all" />
		<path d="M 22 95 L 22 120 M 22 100 L 7 100 M 22 100 L 37 100 M 22 120 L 7 140 M 22 120 L 37 140" fill="none" stroke="#000000" stroke-miterlimit="10" pointer-events="all" />
		<g transform="translate(-0.5 -0.5)">
			<text x="22" y="159" fill="#000000" font-family="&quot;Times New Roman&quot;, SimSun, sans-serif" font-size="12px" text-anchor="middle">
				Professor
			</text>
		</g>
		<ellipse cx="392" cy="87.5" rx="7.5" ry="7.5" fill="#ffffff" stroke="#000000" pointer-events="all" />
		<path d="M 392 95 L 392 120 M 392 100 L 377 100 M 392 100 L 407 100 M 392 120 L 377 140 M 392 120 L 407 140" fill="none" stroke="#000000" stroke-miterlimit="10" pointer-events="all" />
		<g transform="translate(-0.5 -0.5)">
			<text x="392" y="159" fill="#000000" font-family="&quot;Times New Roman&quot;, SimSun, sans-serif" font-size="12px" text-anchor="middle">
				Student
			</text>
		</g>
		<ellipse cx="207" cy="45" rx="70" ry="25" fill="#ffffff" stroke="#000000" pointer-events="all" />
		<g transform="translate(-0.5 -0.5)">
			<text x="207" y="49" fill="#000000" font-family="&quot;Times New Roman&quot;, SimSun, sans-serif" font-size="12px" text-anchor="middle">
				Publish project details
			</text>
		</g>
		<ellipse cx="207" cy="110" rx="70" ry="20" fill="#ffffff" stroke="#000000" pointer-events="all" />
		<g transform="translate(-0.5 -0.5)">
			<text x="207" y="114" fill="#000000" font-family="&quot;Times New Roman&quot;, SimSun, sans-serif" font-size="12px" text-anchor="middle">
				View result
			</text>
		</g>
		<ellipse cx="207" cy="170" rx="70" ry="20" fill="#ffffff" stroke="#000000" pointer-events="all" />
		<g transform="translate(-0.5 -0.5)">
			<text x="207" y="174" fill="#000000" font-family="&quot;Times New Roman&quot;, SimSun, sans-serif" font-size="12px" text-anchor="middle">
				Choose projects to participate
			</text>
		</g>
		<path d="M 37 101.52 L 131.46 48.13" fill="none" stroke="#000000" stroke-miterlimit="10" pointer-events="stroke" />
		<path d="M 136.03 45.55 L 131.65 52.04 L 131.46 48.13 L 128.21 45.95 Z" fill="#000000" stroke="#000000" stroke-miterlimit="10" pointer-events="all" />
		<path d="M 37 110 L 130.63 110" fill="none" stroke="#000000" stroke-miterlimit="10" pointer-events="stroke" />
		<path d="M 135.88 110 L 128.88 113.5 L 130.63 110 L 128.88 106.5 Z" fill="#000000" stroke="#000000" stroke-miterlimit="10" pointer-events="all" />
		<path d="M 377 117.83 L 282.65 167.05" fill="none" stroke="#000000" stroke-miterlimit="10" pointer-events="stroke" />
		<path d="M 277.99 169.48 L 282.58 163.14 L 282.65 167.05 L 285.82 169.35 Z" fill="#000000" stroke="#000000" stroke-miterlimit="10" pointer-events="all" />
		<path d="M 377 110 L 283.37 110" fill="none" stroke="#000000" stroke-miterlimit="10" pointer-events="stroke" />
		<path d="M 278.12 110 L 285.12 106.5 L 283.37 110 L 285.12 113.5 Z" fill="#000000" stroke="#000000" stroke-miterlimit="10" pointer-events="all" />
	</g>
</svg>
