<svg xmlns="http://www.w3.org/2000/svg" xmlns:xlink="http://www.w3.org/1999/xlink" version="1.1" width="811px" height="521px" viewBox="-0.5 -0.5 811 521">
	<defs />
    <style>
    text {
        font-family: "Times New Roman", SimSun, sans-serif;
        font-size: 12px;
        text-anchor: middle;
    }
    </style>
	<g>
		<rect x="70" y="140" width="100" height="40" fill="#dae8fc" stroke="#6c8ebf" pointer-events="all" />
		<g transform="translate(-0.5 -0.5)">
			<text x="120" y="164" fill="#000000">项目</text>
		</g>
		<rect x="370" y="140" width="100" height="40" fill="#dae8fc" stroke="#6c8ebf" pointer-events="all" />
		<g transform="translate(-0.5 -0.5)">
			<text x="420" y="164" fill="#000000">项目组（课程）</text>
		</g>
		<rect x="670" y="140" width="100" height="40" fill="#dae8fc" stroke="#6c8ebf" pointer-events="all" />
		<g transform="translate(-0.5 -0.5)">
			<text x="720" y="164" fill="#000000">教授</text>
		</g>
		<path d="M 570 130 L 630 160 L 570 190 L 510 160 Z" fill="#fff2cc" stroke="#d6b656" stroke-miterlimit="10" pointer-events="all" />
		<g transform="translate(-0.5 -0.5)">
			<text x="570" y="164" fill="#000000">发布</text>
		</g>
		<path d="M 270 130 L 330 160 L 270 190 L 210 160 Z" fill="#fff2cc" stroke="#d6b656" stroke-miterlimit="10" pointer-events="all" />
		<g transform="translate(-0.5 -0.5)">
			<text x="270" y="164" fill="#000000">包含</text>
		</g>
		<ellipse cx="114" cy="290" rx="50" ry="20" fill="#f5f5f5" stroke="#666666" pointer-events="all" />
		<g transform="translate(-0.5 -0.5)">
			<text x="114" y="294" fill="#333333">最多组数</text>
		</g>
		<ellipse cx="150" cy="60" rx="50" ry="20" fill="#f5f5f5" stroke="#666666" pointer-events="all" />
		<g transform="translate(-0.5 -0.5)">
			<text x="150" y="64" fill="#333333">项目编号</text>
		</g>
		<ellipse cx="60" cy="240" rx="50" ry="20" fill="#f5f5f5" stroke="#666666" pointer-events="all" />
		<g transform="translate(-0.5 -0.5)">
			<text x="60" y="244" fill="#333333">项目简介</text>
		</g>
		<ellipse cx="50" cy="90" rx="50" ry="20" fill="#f5f5f5" stroke="#666666" pointer-events="all" />
		<g transform="translate(-0.5 -0.5)">
			<text x="50" y="94" fill="#333333">项目名称</text>
		</g>
		<path d="M 144.16 79.86 L 126 140" fill="none" stroke="#000000" stroke-miterlimit="10" pointer-events="stroke" />
		<path d="M 68.57 108.57 L 100 140" fill="none" stroke="#000000" stroke-miterlimit="10" pointer-events="stroke" />
		<path d="M 74.28 220.83 L 105 180" fill="none" stroke="#000000" stroke-miterlimit="10" pointer-events="stroke" />
		<path d="M 119.07 180 L 114.91 270" fill="none" stroke="#000000" stroke-miterlimit="10" pointer-events="stroke" />
		<path d="M 210 160 L 170 160" fill="none" stroke="#000000" stroke-miterlimit="10" pointer-events="stroke" />
		<g transform="translate(-0.5 -0.5)">
			<text x="169" y="158" fill="#000000" text-anchor="end">N</text>
		</g>
		<path d="M 330 160 L 370 160" fill="none" stroke="#000000" stroke-miterlimit="10" pointer-events="stroke" />
		<g transform="translate(-0.5 -0.5)">
			<text x="369" y="158" fill="#000000" text-anchor="end">1</text>
		</g>
		<path d="M 630 160 L 670 160" fill="none" stroke="#000000" stroke-miterlimit="10" pointer-events="stroke" />
		<g transform="translate(-0.5 -0.5)">
			<text x="669" y="158" fill="#000000" text-anchor="end">1</text>
		</g>
		<path d="M 510 160 L 470 160" fill="none" stroke="#000000" stroke-miterlimit="10" pointer-events="stroke" />
		<g transform="translate(-0.5 -0.5)">
			<text x="469" y="158" fill="#000000" text-anchor="end">N</text>
		</g>
		<ellipse cx="354" cy="70" rx="50" ry="20" fill="#f5f5f5" stroke="#666666" pointer-events="all" />
		<g transform="translate(-0.5 -0.5)">
			<text x="354" y="74" fill="#333333">计划名称</text>
		</g>
		<ellipse cx="480" cy="70" rx="50" ry="20" fill="#f5f5f5" stroke="#666666" pointer-events="all" />
		<g transform="translate(-0.5 -0.5)">
			<text x="480" y="74" fill="#333333">计划编号</text>
		</g>
		<path d="M 367.99 89.2 L 405.33 140" fill="none" stroke="#000000" stroke-miterlimit="10" pointer-events="stroke" />
		<path d="M 467.22 89.34 L 433.33 140" fill="none" stroke="#000000" stroke-miterlimit="10" pointer-events="stroke" />
		<ellipse cx="640" cy="70" rx="50" ry="20" fill="#f5f5f5" stroke="#666666" pointer-events="all" />
		<g transform="translate(-0.5 -0.5)">
			<text x="640" y="74" fill="#333333">用户名</text>
		</g>
		<ellipse cx="700" cy="20" rx="50" ry="20" fill="#f5f5f5" stroke="#666666" pointer-events="all" />
		<g transform="translate(-0.5 -0.5)">
			<text x="700" y="24" fill="#333333">称谓</text>
		</g>
		<ellipse cx="760" cy="70" rx="50" ry="20" fill="#f5f5f5" stroke="#666666" pointer-events="all" />
		<g transform="translate(-0.5 -0.5)">
			<text x="760" y="74" fill="#333333">密码</text>
		</g>
		<path d="M 702.74 39.97 L 717.14 140" fill="none" stroke="#000000" stroke-miterlimit="10" pointer-events="stroke" />
		<path d="M 728.87 140 L 751.19 89.69" fill="none" stroke="#000000" stroke-miterlimit="10" pointer-events="stroke" />
		<path d="M 656.62 88.86 L 702.22 140" fill="none" stroke="#000000" stroke-miterlimit="10" pointer-events="stroke" />
		<path d="M 224 360 L 284 390 L 224 420 L 164 390 Z" fill="#fff2cc" stroke="#d6b656" stroke-miterlimit="10" pointer-events="all" />
		<g transform="translate(-0.5 -0.5)">
			<text x="224" y="394" fill="#000000">志愿选择</text>
		</g>
		<path d="M 344 280 L 404 310 L 344 340 L 284 310 Z" fill="#fff2cc" stroke="#d6b656" stroke-miterlimit="10" pointer-events="all" />
		<g transform="translate(-0.5 -0.5)">
			<text x="344" y="314" fill="#000000">选择</text>
		</g>
		<rect x="380" y="410" width="100" height="40" fill="#dae8fc" stroke="#6c8ebf" pointer-events="all" />
		<g transform="translate(-0.5 -0.5)">
			<text x="430" y="434" fill="#000000">小组</text>
		</g>
		<path d="M 686.57 290 L 683.13 269.96" fill="none" stroke="#000000" stroke-miterlimit="10" pointer-events="stroke" />
		<path d="M 359.83 332.09 L 415.67 410" fill="none" stroke="#000000" stroke-miterlimit="10" pointer-events="stroke" />
		<g transform="translate(-0.5 -0.5)">
			<text x="415" y="408" fill="#000000" text-anchor="end">1</text>
		</g>
		<path d="M 318.35 292.82 L 149.87 180" fill="none" stroke="#000000" stroke-miterlimit="10" pointer-events="stroke" />
		<g transform="translate(-0.5 -0.5)">
			<text x="149" y="178" fill="#000000" text-anchor="end">1</text>
		</g>
		<path d="M 212.94 365.53 L 129.04 180" fill="none" stroke="#000000" stroke-miterlimit="10" pointer-events="stroke" />
		<g transform="translate(-0.5 -0.5)">
			<text x="128" y="178" fill="#000000" text-anchor="end">N</text>
		</g>
		<path d="M 267.22 398.39 L 380 420.29" fill="none" stroke="#000000" stroke-miterlimit="10" pointer-events="stroke" />
		<g transform="translate(-0.5 -0.5)">
			<text x="380" y="419" fill="#000000" text-anchor="end">1</text>
		</g>
		<path d="M 540 300 L 600 330 L 540 360 L 480 330 Z" fill="#fff2cc" stroke="#d6b656" stroke-miterlimit="10" pointer-events="all" />
		<g transform="translate(-0.5 -0.5)">
			<text x="540" y="334" fill="#000000">包含</text>
		</g>
		<rect x="640" y="290" width="100" height="40" fill="#dae8fc" stroke="#6c8ebf" pointer-events="all" />
		<g transform="translate(-0.5 -0.5)">
			<text x="690" y="314" fill="#000000">学生</text>
		</g>
		<path d="M 518.71 349.35 L 452 410" fill="none" stroke="#000000" stroke-miterlimit="10" pointer-events="stroke" />
		<g transform="translate(-0.5 -0.5)">
			<text x="451" y="408" fill="#000000" text-anchor="end">N</text>
		</g>
		<path d="M 587.37 323.68 L 640 316.67" fill="none" stroke="#000000" stroke-miterlimit="10" pointer-events="stroke" />
		<g transform="translate(-0.5 -0.5)">
			<text x="639" y="315" fill="#000000" text-anchor="end">N</text>
		</g>
		<ellipse cx="620" cy="370" rx="50" ry="20" fill="#f5f5f5" stroke="#666666" pointer-events="all" />
		<g transform="translate(-0.5 -0.5)">
			<text x="620" y="374" fill="#333333">用户名</text>
		</g>
		<ellipse cx="670" cy="410" rx="50" ry="20" fill="#f5f5f5" stroke="#666666" pointer-events="all" />
		<g transform="translate(-0.5 -0.5)">
			<text x="670" y="414" fill="#333333">称谓</text>
		</g>
		<ellipse cx="747" cy="370" rx="50" ry="20" fill="#f5f5f5" stroke="#666666" pointer-events="all" />
		<g transform="translate(-0.5 -0.5)">
			<text x="747" y="374" fill="#333333">密码</text>
		</g>
		<ellipse cx="680" cy="250" rx="50" ry="20" fill="#f5f5f5" stroke="#666666" pointer-events="all" />
		<g transform="translate(-0.5 -0.5)">
			<text x="680" y="254" fill="#333333">能力指标</text>
		</g>
		<path d="M 640.85 351.82 L 666.67 330" fill="none" stroke="#000000" stroke-miterlimit="10" pointer-events="stroke" />
		<path d="M 673.81 390.06 L 686 330" fill="none" stroke="#000000" stroke-miterlimit="10" pointer-events="stroke" />
		<path d="M 729.38 351.28 L 709 330" fill="none" stroke="#000000" stroke-miterlimit="10" pointer-events="stroke" />
		<ellipse cx="370" cy="500" rx="50" ry="20" fill="#f5f5f5" stroke="#666666" pointer-events="all" />
		<g transform="translate(-0.5 -0.5)">
			<text x="370" y="504" fill="#333333">组名</text>
		</g>
		<ellipse cx="490" cy="500" rx="50" ry="20" fill="#f5f5f5" stroke="#666666" pointer-events="all" />
		<g transform="translate(-0.5 -0.5)">
			<text x="490" y="504" fill="#333333">编号</text>
		</g>
		<path d="M 386.22 481.08 L 412.86 450" fill="none" stroke="#000000" stroke-miterlimit="10" pointer-events="stroke" />
		<path d="M 473.78 481.08 L 447.14 450" fill="none" stroke="#000000" stroke-miterlimit="10" pointer-events="stroke" />
	</g>
</svg>
