<svg xmlns="http://www.w3.org/2000/svg" xmlns:xlink="http://www.w3.org/1999/xlink" version="1.1" width="708px" height="526px" viewBox="-0.5 -0.5 708 526">
	<defs />
	<style>
		text {
			font-family: "Times New Roman", SimSun, sans-serif;
			font-size: 12px;
		}
	</style>
		<g>
		<ellipse cx="22" cy="77.5" rx="7.5" ry="7.5" fill="#ffffff" stroke="#000000" pointer-events="all" />
		<path d="M 22 85 L 22 110 M 22 90 L 7 90 M 22 90 L 37 90 M 22 110 L 7 130 M 22 110 L 37 130" fill="none" stroke="#000000" stroke-miterlimit="10" pointer-events="all" />
		<g transform="translate(-0.5 -0.5)">
			<text x="22" y="149" fill="#000000" text-anchor="middle">
				Professor
			</text>
		</g>
		<ellipse cx="22" cy="349.75" rx="7.5" ry="7.5" fill="#ffffff" stroke="#000000" pointer-events="all" />
		<path d="M 22 357.25 L 22 382.25 M 22 362.25 L 7 362.25 M 22 362.25 L 37 362.25 M 22 382.25 L 7 402.25 M 22 382.25 L 37 402.25" fill="none" stroke="#000000" stroke-miterlimit="10" pointer-events="all" />
		<g transform="translate(-0.5 -0.5)">
			<text x="22" y="421" fill="#000000" text-anchor="middle">
				Student
			</text>
		</g>
		<path d="M 157 80 L 157 120" fill="none" stroke="#000000" stroke-miterlimit="10" pointer-events="all" />
		<path d="M 157 100 L 173.67 100" fill="none" stroke="#000000" stroke-miterlimit="10" pointer-events="all" />
		<ellipse cx="215.33" cy="100" rx="41.666666666666664" ry="40" fill="#ffffff" stroke="#000000" pointer-events="all" />
		<g transform="translate(-0.5 -0.5)">
			<text x="216" y="104" fill="#000000" text-anchor="middle">
				教授端界面
			</text>
		</g>
		<path d="M 157 352.25 L 157 392.25" fill="none" stroke="#000000" stroke-miterlimit="10" pointer-events="all" />
		<path d="M 157 372.25 L 173.67 372.25" fill="none" stroke="#000000" stroke-miterlimit="10" pointer-events="all" />
		<ellipse cx="215.33" cy="372.25" rx="41.666666666666664" ry="40" fill="#ffffff" stroke="#000000" pointer-events="all" />
		<g transform="translate(-0.5 -0.5)">
			<text x="216" y="376" fill="#000000" text-anchor="middle">
				学生端界面
			</text>
		</g>
		<path d="M 363.25 231 L 380.75 220" fill="none" stroke="#000000" stroke-miterlimit="10" pointer-events="all" />
		<ellipse cx="372" cy="265" rx="35" ry="35" fill="#ffffff" stroke="#000000" pointer-events="all" />
		<path d="M 363.25 231 L 380.75 240" fill="none" stroke="#000000" stroke-miterlimit="10" pointer-events="all" />
		<g transform="translate(-0.5 -0.5)">
			<text x="372" y="269" fill="#000000" text-anchor="middle">
				创建小组
			</text>
		</g>
		<path d="M 363.25 343.25 L 380.75 332.25" fill="none" stroke="#000000" stroke-miterlimit="10" pointer-events="all" />
		<ellipse cx="372" cy="377.25" rx="35" ry="35" fill="#ffffff" stroke="#000000" pointer-events="all" />
		<path d="M 363.25 343.25 L 380.75 352.25" fill="none" stroke="#000000" stroke-miterlimit="10" pointer-events="all" />
		<g transform="translate(-0.5 -0.5)">
			<text x="372" y="381" fill="#000000" text-anchor="middle">
				加入小组
			</text>
		</g>
		<path d="M 363.25 455.5 L 380.75 444.5" fill="none" stroke="#000000" stroke-miterlimit="10" pointer-events="all" />
		<ellipse cx="372" cy="489.5" rx="35" ry="35" fill="#ffffff" stroke="#000000" pointer-events="all" />
		<path d="M 363.25 455.5 L 380.75 464.5" fill="none" stroke="#000000" stroke-miterlimit="10" pointer-events="all" />
		<g transform="translate(-0.5 -0.5)">
			<text x="372" y="493" fill="#000000" text-anchor="middle">
				退出小组
			</text>
		</g>
		<path d="M 363.25 11 L 380.75 0" fill="none" stroke="#000000" stroke-miterlimit="10" pointer-events="all" />
		<ellipse cx="372" cy="45" rx="35" ry="35" fill="#ffffff" stroke="#000000" pointer-events="all" />
		<path d="M 363.25 11 L 380.75 20" fill="none" stroke="#000000" stroke-miterlimit="10" pointer-events="all" />
		<g transform="translate(-0.5 -0.5)">
			<text x="372" y="49" fill="#000000" text-anchor="middle">
				停止分组
			</text>
		</g>
		<path d="M 363.25 121 L 380.75 110" fill="none" stroke="#000000" stroke-miterlimit="10" pointer-events="all" />
		<ellipse cx="372" cy="155" rx="35" ry="35" fill="#ffffff" stroke="#000000" pointer-events="all" />
		<path d="M 363.25 121 L 380.75 130" fill="none" stroke="#000000" stroke-miterlimit="10" pointer-events="all" />
		<g transform="translate(-0.5 -0.5)">
			<text x="372" y="159" fill="#000000" text-anchor="middle">
				调整分组
			</text>
		</g>
		<path d="M 513.25 341 L 530.75 330" fill="none" stroke="#000000" stroke-miterlimit="10" pointer-events="all" />
		<ellipse cx="522" cy="375" rx="35" ry="35" fill="#ffffff" stroke="#000000" pointer-events="all" />
		<path d="M 513.25 341 L 530.75 350" fill="none" stroke="#000000" stroke-miterlimit="10" pointer-events="all" />
		<g transform="translate(-0.5 -0.5)">
			<text x="522" y="379" fill="#000000" text-anchor="middle">
				移出小组
			</text>
		</g>
		<path d="M 513.25 231 L 530.75 220" fill="none" stroke="#000000" stroke-miterlimit="10" pointer-events="all" />
		<ellipse cx="522" cy="265" rx="35" ry="35" fill="#ffffff" stroke="#000000" pointer-events="all" />
		<path d="M 513.25 231 L 530.75 240" fill="none" stroke="#000000" stroke-miterlimit="10" pointer-events="all" />
		<g transform="translate(-0.5 -0.5)">
			<text x="522" y="269" fill="#000000" text-anchor="middle">
				移入小组
			</text>
		</g>
		<path d="M 257 81.82 L 338.65 52.13" fill="none" stroke="#000000" stroke-miterlimit="10" pointer-events="stroke" />
		<path d="M 257 115.15 L 338.17 139.75" fill="none" stroke="#000000" stroke-miterlimit="10" pointer-events="stroke" />
		<path d="M 257 338.22 L 341.91 280.43" fill="none" stroke="#000000" stroke-miterlimit="10" pointer-events="stroke" />
		<path d="M 257 372.25 L 337 372.25" fill="none" stroke="#000000" stroke-miterlimit="10" pointer-events="stroke" />
		<path d="M 257 406.28 L 341.91 464.07" fill="none" stroke="#000000" stroke-miterlimit="10" pointer-events="stroke" />
		<path d="M 401.26 350.3 L 492.7 281.88" fill="none" stroke="#000000" stroke-miterlimit="10" pointer-events="stroke" />
		<path d="M 407 260 L 487 260" fill="none" stroke="#000000" stroke-miterlimit="10" pointer-events="stroke" />
		<path d="M 401.07 462.22 L 492.86 392.15" fill="none" stroke="#000000" stroke-miterlimit="10" pointer-events="stroke" />
		<path d="M 401.46 171.6 L 492.54 238.4" fill="none" stroke="#000000" stroke-miterlimit="10" pointer-events="stroke" />
		<path d="M 393.49 181.57 L 500.49 338.45" fill="none" stroke="#000000" stroke-miterlimit="10" pointer-events="stroke" />
		<ellipse cx="667" cy="310" rx="40" ry="40" fill="#ffffff" stroke="#000000" pointer-events="all" />
		<path d="M 637 350 L 697 350" fill="none" stroke="#000000" stroke-miterlimit="10" pointer-events="all" />
		<g transform="translate(-0.5 -0.5)">
			<text x="667" y="314" fill="#000000" text-anchor="middle">
				分组情况
			</text>
		</g>
		<path d="M 555.58 271.3 L 629.19 296.96" fill="none" stroke="#000000" stroke-miterlimit="10" pointer-events="stroke" />
		<path d="M 554.97 356.57 L 630.04 325.29" fill="none" stroke="#000000" stroke-miterlimit="10" pointer-events="stroke" />
		<path d="M 37 100 L 157 100" fill="none" stroke="#000000" stroke-miterlimit="10" pointer-events="stroke" />
		<path d="M 37 372.25 L 157 372.25" fill="none" stroke="#000000" stroke-miterlimit="10" pointer-events="stroke" />
	</g>
</svg>
