<svg xmlns="http://www.w3.org/2000/svg" xmlns:xlink="http://www.w3.org/1999/xlink" version="1.1" width="601px" height="342px" viewBox="-0.5 -0.5 601 342">
	<defs />
    <style>
		text {
			font-family: "Times New Roman", SimSun, sans-serif;
			font-size: 12px;
		}
	</style>
	<g>
		<rect x="330" y="0" width="120" height="60" fill="#ffffff" stroke="#000000" pointer-events="all" />
		<g transform="translate(-0.5 -0.5)">
			<switch>
				<text x="390" y="34" fill="#000000" text-anchor="middle">
					Eureka Server
				</text>
			</switch>
		</g>
		<rect x="480" y="150" width="120" height="60" fill="#ffffff" stroke="#000000" pointer-events="all" />
		<g transform="translate(-0.5 -0.5)">
			<switch>
				<text x="540" y="184" fill="#000000" text-anchor="middle">
					分组算法
				</text>
			</switch>
		</g>
		<rect x="460" y="90" width="40" height="20" fill="none" stroke="none" pointer-events="all" />
		<g transform="translate(-0.5 -0.5)">
			<switch>
				<text x="480" y="104" fill="#000000" text-anchor="middle">
					注册
				</text>
			</switch>
		</g>
		<rect x="180" y="150" width="120" height="60" fill="#ffffff" stroke="#000000" pointer-events="all" />
		<g transform="translate(-0.5 -0.5)">
			<switch>
				<text x="240" y="184" fill="#000000" text-anchor="middle">
					主业务程序
				</text>
			</switch>
		</g>
		<rect x="240" y="90" width="70" height="20" fill="none" stroke="none" pointer-events="all" />
		<g transform="translate(-0.5 -0.5)">
			<switch>
				<text x="275" y="104" fill="#000000" text-anchor="middle">
					发现和调用服务
				</text>
			</switch>
		</g>
		<path d="M 510 150 L 424.5 64.5" fill="none" stroke="#000000" stroke-miterlimit="10" pointer-events="stroke" />
		<path d="M 420.79 60.79 L 428.22 63.27 L 424.5 64.5 L 423.27 68.22 Z" fill="#000000" stroke="#000000" stroke-miterlimit="10" pointer-events="all" />
		<path d="M 270 150 L 355.5 64.5" fill="none" stroke="#000000" stroke-miterlimit="10" pointer-events="stroke" />
		<path d="M 359.21 60.79 L 356.73 68.22 L 355.5 64.5 L 351.78 63.27 Z" fill="#000000" stroke="#000000" stroke-miterlimit="10" pointer-events="all" />
		<ellipse cx="15" cy="157.5" rx="7.5" ry="7.5" fill="#ffffff" stroke="#000000" pointer-events="all" />
		<path d="M 15 165 L 15 190 M 15 170 L 0 170 M 15 170 L 30 170 M 15 190 L 0 210 M 15 190 L 30 210" fill="none" stroke="#000000" stroke-miterlimit="10" pointer-events="all" />
		<g transform="translate(-0.5 -0.5)">
			<switch>
				<text x="15" y="229" fill="#000000" text-anchor="middle">
					用户
				</text>
			</switch>
		</g>
		<path d="M 180 180 L 36.37 180" fill="none" stroke="#000000" stroke-miterlimit="10" pointer-events="stroke" />
		<path d="M 31.12 180 L 38.12 176.5 L 36.37 180 L 38.12 183.5 Z" fill="#000000" stroke="#000000" stroke-miterlimit="10" pointer-events="all" />
		<rect x="60" y="150" width="70" height="20" fill="none" stroke="none" pointer-events="all" />
		<g transform="translate(-0.5 -0.5)">
			<switch>
				<text x="95" y="164" fill="#000000" text-anchor="middle">
					提供界面
				</text>
			</switch>
		</g>
		<rect x="180" y="280" width="120" height="60" fill="#ffffff" stroke="#000000" pointer-events="all" />
		<g transform="translate(-0.5 -0.5)">
			<switch>
				<text x="240" y="314" fill="#000000" text-anchor="middle">
					数据库
				</text>
			</switch>
		</g>
		<path d="M 240 210 L 240 273.63" fill="none" stroke="#000000" stroke-miterlimit="10" pointer-events="stroke" />
		<path d="M 240 278.88 L 236.5 271.88 L 240 273.63 L 243.5 271.88 Z" fill="#000000" stroke="#000000" stroke-miterlimit="10" pointer-events="all" />
		<rect x="260" y="230" width="40" height="20" fill="none" stroke="none" pointer-events="all" />
		<g transform="translate(-0.5 -0.5)">
			<switch>
				<text x="280" y="244" fill="#000000" text-anchor="middle">
					使用
				</text>
			</switch>
		</g>
	</g>
	<switch>
		<g requiredFeatures="http://www.w3.org/TR/SVG11/feature#Extensibility" />
		<a transform="translate(0,-5)" xlink:href="https://www.diagrams.net/doc/faq/svg-export-text-problems" target="_blank">
			<text text-anchor="middle" font-size="10px" x="50%" y="100%">
				Viewer does not support full SVG 1.1
			</text>
		</a>
	</switch>
</svg>
